<?xml version="1.0" standalone="no"?>
<!DOCTYPE svg PUBLIC "-//W3C//DTD SVG 20010904//EN"
 "http://www.w3.org/TR/2001/REC-SVG-20010904/DTD/svg10.dtd">
<svg version="1.0" xmlns="http://www.w3.org/2000/svg"
 width="700.000000pt" height="700.000000pt" viewBox="0 0 700.000000 700.000000"
 preserveAspectRatio="xMidYMid meet">
<metadata>
Created by potrace 1.14, written by Peter Selinger 2001-2017
</metadata>
<g transform="translate(0.000000,700.000000) scale(0.100000,-0.100000)"
fill="#000000" stroke="none">
<path d="M1934 6983 c3 -10 127 -535 276 -1168 149 -632 278 -1156 285 -1164
16 -16 -85 -64 1090 507 1076 523 1185 573 1185 547 0 -2 315 -1086 701 -2407
800 -2744 921 -3160 944 -3240 l16 -58 285 0 284 0 0 3500 0 3500 -2536 0
c-2410 0 -2535 -1 -2530 -17z"/>
<path d="M3358 4780 c-116 -29 -251 -137 -316 -252 -68 -118 -102 -262 -102
-423 l0 -104 -92 93 c-104 103 -177 155 -288 203 -219 94 -438 52 -590 -114
-62 -67 -132 -209 -155 -313 -108 -478 162 -1099 576 -1323 331 -180 665 -50
790 309 25 75 49 227 49 321 l0 72 83 -83 c239 -241 502 -315 732 -205 155 74
270 243 311 457 18 97 18 297 -1 406 -34 196 -128 419 -242 578 -74 103 -213
235 -304 289 -115 69 -188 91 -309 95 -58 2 -122 -1 -142 -6z m214 -81 c174
-37 371 -190 500 -389 53 -80 128 -223 91 -170 -63 89 -142 148 -232 174 -270
79 -502 -177 -426 -469 66 -251 314 -397 522 -305 60 26 138 104 167 164 30
64 49 163 42 224 -5 41 -3 38 14 -23 29 -106 44 -245 36 -354 -16 -246 -121
-438 -281 -517 -56 -27 -68 -29 -175 -29 -127 0 -178 15 -296 86 -222 135
-420 445 -490 769 -25 115 -25 346 -1 445 72 288 284 446 529 394z m-1064
-471 c108 -45 174 -90 272 -188 93 -93 192 -229 205 -281 6 -25 3 -24 -40 17
-73 67 -142 97 -239 102 -65 3 -92 0 -137 -17 -114 -43 -196 -151 -220 -288
-23 -132 33 -295 134 -390 80 -76 145 -105 244 -111 103 -6 166 15 235 77 80
72 126 173 129 281 l1 45 13 -30 c38 -86 45 -386 11 -510 -44 -163 -140 -290
-262 -347 -349 -163 -818 231 -949 797 -36 156 -36 362 0 500 47 176 165 314
308 361 69 22 218 13 295 -18z m1506 -57 c97 -65 84 -205 -17 -172 -54 18
-107 86 -107 137 0 23 38 54 68 54 15 0 40 -9 56 -19z m-1129 -462 c98 -86 45
-201 -66 -144 -56 29 -85 107 -59 156 18 32 82 26 125 -12z"/>
<path d="M0 2042 l0 -2042 3200 0 c1760 0 3200 3 3200 6 0 3 -34 111 -76 240
l-76 233 -31 -13 c-18 -7 -126 -55 -242 -106 -115 -50 -220 -96 -232 -100 -25
-10 75 -124 -1208 1360 -483 558 -883 1016 -890 1018 -7 2 -556 -193 -1220
-433 -664 -240 -1211 -433 -1215 -428 -4 4 -277 523 -605 1153 -328 630 -599
1147 -601 1149 -2 2 -4 -914 -4 -2037z"/>
</g>
</svg>
